<svg width="142" height="18" viewBox="0 0 142 18" fill="none" xmlns="http://www.w3.org/2000/svg">
<g id="Nutritionist">
<path d="M13.0197 12.9426V1.62507H16.4397V17.3751H11.5122L4.60475 6.08007H4.22225V17.3751H0.802246V1.62507H5.41475V1.64757H5.72975L12.6147 12.9426H13.0197Z" fill="white"/>
<path d="M28.8822 4.75257H32.3022V17.3751H28.8822V15.5301H28.7247C27.9147 16.6551 26.7672 17.3751 24.4947 17.3751C19.1622 17.3751 19.0272 12.9201 19.0272 11.0751V4.75257H22.4247V11.0751C22.4247 12.0651 22.1997 14.4501 25.4847 14.4501C28.4322 14.4501 28.8822 12.5601 28.8822 10.8501V4.75257Z" fill="white"/>
<path d="M39.5472 7.67757V12.1551V12.4251C39.5472 14.2476 40.3572 14.0001 43.6422 13.8201V17.1501C43.6422 17.1501 42.9672 17.3751 39.5472 17.3751C36.1047 17.3751 36.1047 14.5626 36.1047 12.7401V7.67757H34.4397V4.79757H36.1047V1.15257H39.5472V4.79757H43.6422V7.67757H39.5472Z" fill="white"/>
<path d="M53.2751 4.75257C54.1751 4.75257 54.9176 4.95507 55.5026 5.09007L54.9626 8.30757C54.6476 8.21757 53.7701 8.03757 52.6901 8.03757C50.1476 8.03757 49.4051 10.0176 49.4051 11.7276V17.3751H45.9851V4.75257H49.4051V6.62007H49.6076C50.3276 5.40507 51.0926 4.75257 53.2751 4.75257Z" fill="white"/>
<path d="M60.7301 17.3751H57.3326V4.84257H60.7301V17.3751ZM60.7301 3.94257H57.3326V0.882568H60.7301V3.94257Z" fill="white"/>
<path d="M68.1846 7.67757V12.1551V12.4251C68.1846 14.2476 68.9947 14.0001 72.2796 13.8201V17.1501C72.2796 17.1501 71.6047 17.3751 68.1846 17.3751C64.7421 17.3751 64.7421 14.5626 64.7421 12.7401V7.67757H63.0771V4.79757H64.7421V1.15257H68.1846V4.79757H72.2796V7.67757H68.1846Z" fill="white"/>
<path d="M77.954 17.3751H74.5565V4.84257H77.954V17.3751ZM77.954 3.94257H74.5565V0.882568H77.954V3.94257Z" fill="white"/>
<path d="M87.3211 4.52757C91.1686 4.52757 94.3636 6.57507 94.3636 10.9626C94.3636 15.3951 91.1686 17.3751 87.3211 17.3751C83.4961 17.3751 80.3011 15.3276 80.3011 10.9626C80.3011 6.62007 83.4961 4.52757 87.3211 4.52757ZM87.3211 14.2701C89.4811 14.2701 91.0111 13.2351 91.0111 10.9626C91.0111 8.62257 89.4811 7.65507 87.3211 7.65507C85.1836 7.65507 83.6536 8.57757 83.6536 10.9626C83.6536 13.3251 85.1836 14.2701 87.3211 14.2701Z" fill="white"/>
<path d="M104.466 4.75257C109.798 4.75257 109.933 9.23007 109.933 11.0751V17.3751H106.536V11.0751C106.536 10.0851 106.738 7.70007 103.476 7.70007C100.506 7.70007 100.078 9.59007 100.078 11.3001V17.3751H96.6584V4.75257H100.078V6.62007H100.236C101.046 5.49507 102.193 4.75257 104.466 4.75257Z" fill="white"/>
<path d="M115.908 17.3751H112.51V4.84257H115.908V17.3751ZM115.908 3.94257H112.51V0.882568H115.908V3.94257Z" fill="white"/>
<path d="M124.74 9.72507C127.598 10.1526 130.838 10.6476 130.838 13.6401C130.838 16.7676 128.588 17.3751 124.718 17.3751C121.86 17.3751 119.903 16.8576 118.89 15.8451C118.013 14.9676 118.013 13.9101 118.035 13.2576V13.0101H121.545V13.1226C121.545 14.2026 122.355 14.6976 124.628 14.6976C126 14.6976 127.305 14.5176 127.305 13.6851C127.305 12.7401 126.09 12.5601 124.718 12.4026C124.538 12.3801 124.358 12.3576 124.178 12.3351C120.555 11.8626 118.305 11.0526 118.305 8.53257C118.305 6.77757 119.318 4.68507 124.178 4.68507C129.398 4.68507 130.5 7.00257 130.5 8.93757V9.05007H127.013V8.93757C127.013 7.94757 126.158 7.40757 124.178 7.40757C122.265 7.40757 121.86 8.10507 121.86 8.48757C121.86 9.05007 122.243 9.36507 124.448 9.70257L124.74 9.72507Z" fill="white"/>
<path d="M137.522 7.67757V12.1551V12.4251C137.522 14.2476 138.332 14.0001 141.617 13.8201V17.1501C141.617 17.1501 140.942 17.3751 137.522 17.3751C134.08 17.3751 134.08 14.5626 134.08 12.7401V7.67757H132.415V4.79757H134.08V1.15257H137.522V4.79757H141.617V7.67757H137.522Z" fill="white"/>
</g>
</svg>
